<svg xmlns="http://www.w3.org/2000/svg" viewBox="0 0 125.57 87.32"><defs><style>.a{fill:#f05f46;}</style></defs><title>mail</title><path class="a" d="M13.05,81.14a6.81,6.81,0,0,1-3.2-.83L44.22,44.61,62.78,60.8,81.35,44.61l34.36,35.71a6.82,6.82,0,0,1-3.2.83H13.05ZM6.12,75.56a8.06,8.06,0,0,1-.32-2.14V13.9a8.09,8.09,0,0,1,.4-2.43L39.7,40.67ZM112.51,6.18a6.83,6.83,0,0,1,3,.69L62.78,52.81,10.09,6.87a6.82,6.82,0,0,1,3-.69h99.46ZM85.87,40.67l33.49-29.2a8.09,8.09,0,0,1,.4,2.43V73.42a8.08,8.08,0,0,1-.32,2.14ZM112.51,0H13.05C5.85,0,0,6.23,0,13.9V73.42c0,7.66,5.85,13.9,13.05,13.9h99.46c7.2,0,13.05-6.24,13.05-13.9V13.9c0-7.67-5.85-13.9-13.05-13.9"/></svg>