<?xml version="1.0" encoding="utf-8"?>
<!-- Generator: Adobe Illustrator 19.0.0, SVG Export Plug-In . SVG Version: 6.00 Build 0)  -->
<svg version="1.1" id="Layer_1" xmlns="http://www.w3.org/2000/svg" xmlns:xlink="http://www.w3.org/1999/xlink" x="0px" y="0px"
	 viewBox="0 0 108 108" style="enable-background:new 0 0 108 108;" xml:space="preserve">
<style type="text/css">
	.st0{fill:#F15F46;}
</style>
<g id="XMLID_2_">
	<path id="XMLID_3_" class="st0" d="M14.4,108c-3.8,0-7.3-1.5-10-4.1c-5.5-5.5-5.5-14.5,0-20.1l46.7-46.7C48.3,27,51,16.3,58.4,8.9
		C64.3,3,72.4,0,80.7,0.5c2.6,0.2,5.3,0.7,7.9,1.6c0.4,0.2,0.8,0.4,1.1,0.7c1.2,1.2,1.3,3.1,0.1,4.4L79.3,17.6
		c-3.2,3.2-3.2,8.1,0,11.3c3.2,3.2,8.1,3.2,11.3,0L101,18.5c0.3-0.3,0.7-0.6,1.2-0.7c0.8-0.3,1.6-0.2,2.4,0.1c0.7,0.4,1.3,1,1.6,1.8
		c3.7,10.5,1.1,22.3-6.8,30.2c-7.3,7.3-18,10.1-28.1,7.2l-46.8,46.8C21.7,106.5,18.2,108,14.4,108z M78.8,6.6
		c-6,0-11.8,2.4-16.1,6.6c-6.3,6.3-8.3,15.4-5.3,23.8c0.4,1.1,0.1,2.4-0.8,3.2L8.7,88.2c-3.2,3.2-3.2,8.1,0,11.3
		c3.2,3.2,8.1,3.2,11.3,0l48-48c0.9-0.8,2.1-1.1,3.2-0.7c8.2,2.9,17.6,0.8,23.7-5.3l0,0c4.9-4.9,7.2-11.6,6.3-18.5L95,33.3
		c-5.5,5.5-14.5,5.5-20,0c-5.5-5.5-5.5-14.5,0-20.1l6.5-6.5c-0.4-0.1-0.7-0.1-1.1-0.1C79.8,6.6,79.3,6.6,78.8,6.6z"/>
</g>
</svg>
