<svg xmlns="http://www.w3.org/2000/svg" viewBox="0 0 35.62 23.61"><title>envelope2</title><path d="M1721.29,4532.4a2,2,0,0,1-.88-0.21l9.48-9.24,5.12,4.19,5.12-4.19,9.47,9.24a2,2,0,0,1-.88.22h-27.42Zm-1.91-1.45a2,2,0,0,1-.09-0.55V4515a2,2,0,0,1,.11-0.63l9.23,7.56Zm29.33-18a2,2,0,0,1,.82.18l-14.53,11.9-14.53-11.9a2,2,0,0,1,.82-0.18h27.42Zm-7.35,8.93,9.23-7.56a2,2,0,0,1,.11.63v15.41a2,2,0,0,1-.09.55Zm7.35-10.53h-27.42a3.6,3.6,0,0,0-3.6,3.6v15.41a3.6,3.6,0,0,0,3.6,3.6h27.42a3.6,3.6,0,0,0,3.6-3.6V4515a3.6,3.6,0,0,0-3.6-3.6" transform="translate(-1717.19 -4510.89)" fill="#5e514d"/><path d="M1721.29,4532.4a2,2,0,0,1-.88-0.21l9.48-9.24,5.12,4.19,5.12-4.19,9.47,9.24a2,2,0,0,1-.88.22h-27.42Zm-1.91-1.45a2,2,0,0,1-.09-0.55V4515a2,2,0,0,1,.11-0.63l9.23,7.56Zm29.33-18a2,2,0,0,1,.82.18l-14.53,11.9-14.53-11.9a2,2,0,0,1,.82-0.18h27.42Zm-7.35,8.93,9.23-7.56a2,2,0,0,1,.11.63v15.41a2,2,0,0,1-.09.55Zm7.35-10.53h-27.42a3.6,3.6,0,0,0-3.6,3.6v15.41a3.6,3.6,0,0,0,3.6,3.6h27.42a3.6,3.6,0,0,0,3.6-3.6V4515A3.6,3.6,0,0,0,1748.71,4511.39Z" transform="translate(-1717.19 -4510.89)" fill="none" stroke="#5e514d"/></svg>