<svg xmlns="http://www.w3.org/2000/svg" width="20.366" height="19.906" viewBox="0 0 20.366 19.906">
  <defs>
    <style>
      .cls-1 {
        fill: #dcd1bd;
        stroke: rgba(0,0,0,0);
        opacity: 0.502;
      }
    </style>
  </defs>
  <path id="Path_54" data-name="Path 54" class="cls-1" d="M280.626,375.027l-3.747-2.953v-3.456a.464.464,0,0,0-.464-.464h-2.252a.464.464,0,0,0-.464.464v.95l-2.164-1.706a.578.578,0,0,0-.716,0l-9.09,7.165a.578.578,0,0,0,.357,1.032h1.741v9.976a.578.578,0,0,0,.577.577h3.676a.578.578,0,0,0,.577-.577V381.18a.578.578,0,0,1,.578-.577h3.88a.578.578,0,0,1,.578.577v4.855a.578.578,0,0,0,.578.577h3.676a.578.578,0,0,0,.578-.577v-9.976h1.741A.578.578,0,0,0,280.626,375.027Z" transform="translate(-260.995 -367.206)"/>
</svg>
