<svg xmlns="http://www.w3.org/2000/svg" width="79.243" height="88.121" viewBox="0 0 79.243 88.121"><defs><style>.a{fill:#707070;fill-rule:evenodd;}</style></defs><path class="a" d="M667.321,451.558l3.866-3.868h13.487a16.83,16.83,0,0,1-6.13-12.98V417.863h33.7v16.848a16.832,16.832,0,0,1-6.133,12.98h8.445l6.689,6.69-4.268,12.805,7.99,32.254-6.544,6.544H702.87l-6.133-6.133v-7.859l7.008-3.5-6.067-21.462h-2.023l-7.734,23.2H675.9l7.735-23.2h-12.45l-3.866-3.866h-6.133v-11.6Zm-21.6,3.868h6.133l-5.469-5.469,2.734-2.735,8.2,8.2v3.866l-8.2,8.2-2.734-2.734,5.469-5.469h-6.133v-3.866Zm40.559-23.2v2.488a9.129,9.129,0,0,0,.1,1.38H704.4a8.95,8.95,0,0,0,.106-1.38v-2.488Zm1.677,7.734a9.079,9.079,0,0,0,14.869,0Zm-5.545-18.226h25.961v12.98a12.981,12.981,0,0,1-25.961,0v-12.98Zm-17.356,33.7h3.868l3.868-3.868h40.158l3.868,3.868-3.868,11.6,7.734,31.224-3.866,3.866H704.471L700.6,498.25v-3.868l7.735-3.866L700.6,463.16h-7.734l-7.734,23.2h-3.868L689,463.16H672.79l-3.868-3.868h-3.868v-3.866Z" transform="translate(-645.719 -417.863)"/></svg>