<svg xmlns="http://www.w3.org/2000/svg" width="73.74" height="73.74" viewBox="0 0 73.74 73.74"><defs><style>.a{fill:#707070;fill-rule:evenodd;}</style></defs><path class="a" d="M681.849,526.377,663.18,545.046l6.314,6.313,1.614-.089c.183-.01.364-.016.546-.017L654.972,566.17h-5.237l-7.24,7.24v8.118l9.8,9.8h8.118l7.24-7.24v-5.237l14.92-16.684c0,.182-.007.364-.017.548l-.09,1.615,6.312,6.312,25.279-25.28c3.75-3.821,2.068-8.637-.634-12.421A62.854,62.854,0,0,0,700.881,520.4c-3.784-2.7-8.6-4.384-12.422-.634h0l-6.61,6.61Zm-17.815,56.212V577.47l17.631-19.715a10.908,10.908,0,0,0-5.6-5.594l-19.715,17.63h-5.119l-5.12,5.119v5.12l7.679,7.679h5.12l5.119-5.12Zm41-53.8a51.4,51.4,0,0,0-6.26-5.442c-2.208-1.576-5.42-3.356-7.819-.957s-.619,5.61.959,7.819a59.337,59.337,0,0,0,11.7,11.7c2.208,1.577,5.419,3.357,7.818.959s.619-5.611-.959-7.818a51.214,51.214,0,0,0-5.441-6.261Zm-18.648-1.83-2.877,2.876a20.871,20.871,0,0,0,2.514,4.581A66.4,66.4,0,0,0,699.41,547.8a20.823,20.823,0,0,0,4.581,2.513l2.876-2.875a15.445,15.445,0,0,1-5.353-2.583,62.851,62.851,0,0,1-12.543-12.543,15.419,15.419,0,0,1-2.582-5.353Zm-5.627,5.626L668.3,545.046l2.609,2.608a14.478,14.478,0,0,1,15.262,15.262l2.607,2.607,12.462-12.461a25.188,25.188,0,0,1-3.935-2.318,69.9,69.9,0,0,1-14.226-14.226,25.271,25.271,0,0,1-2.318-3.935Zm6.311,14.169a1.81,1.81,0,1,0,0,2.56,1.812,1.812,0,0,0,0-2.56Zm-29.437,29.438a3.62,3.62,0,1,0,0,5.119,3.621,3.621,0,0,0,0-5.119Z" transform="translate(-642.495 -517.589)"/></svg>