<svg xmlns="http://www.w3.org/2000/svg" width="83.691" height="91.494" viewBox="0 0 83.691 91.494"><defs><style>.a{fill:#707070;fill-rule:evenodd;}</style></defs><path class="a" d="M315.83,324.95h9.428v-3.407h8.356l3.407-3.407h9.637l3.407,3.407h8.356v3.407h9.43v27.438a10.968,10.968,0,0,1,13,1.847l6.04,6.04,7.521,0A5.109,5.109,0,0,1,398.027,369l-1.2,1.2-2.409,2.409-18.944,18.944a10.965,10.965,0,0,1-14.733.668l-3.109,3.111h-4.819l-1.2,1.2v4.819l-4.406,4.4h-2.822v3.867H332.745v-8.686l9.016-9.015H315.83V324.95Zm48.612,30.233V328.359H358.42v3.407H325.258v-3.407h-6.021v60.163h25.931l5.933-5.933a10.978,10.978,0,0,1-.788-12.932h-14.42l3.407-3.407h14.077l11.065-11.066Zm-8.03,23.494a4.144,4.144,0,0,1,0-5.828l3.984-3.983a4.077,4.077,0,0,0,3.418-3.42l3.984-3.983a4.142,4.142,0,0,1,5.828,0l8.237,8.237a4.144,4.144,0,0,1,0,5.828l-3.984,3.983a4.077,4.077,0,0,0-3.418,3.42l-3.984,3.983a4.142,4.142,0,0,1-5.828,0l-8.237-8.237Zm7.4-7.4a.732.732,0,0,0-1.009,0l-3.983,3.983a.734.734,0,0,0,0,1.011l8.237,8.237a.735.735,0,0,0,1.009,0l3.983-3.984a.733.733,0,0,0,0-1.009l-8.237-8.237Zm2.41-2.409a.732.732,0,0,1,0-1.009l3.983-3.983a.732.732,0,0,1,1.009,0l8.237,8.236a.734.734,0,0,1,0,1.011l-3.983,3.983a.733.733,0,0,1-1.009,0l-8.237-8.237ZM353.478,385.03l4.818,4.819-2.079,2.08H351.4l-3.2,3.2v4.819l-2.409,2.409h-4.818v3.866h-4.819v-3.867l17.327-17.327ZM390.3,363.684l2.009,2.009,2.1,2.1,1.2-1.205a1.707,1.707,0,0,0,0-2.409h0a1.7,1.7,0,0,0-1.2-.5Zm-11.857-7.039,9.046,9.048,4.515,4.513-18.945,18.944a7.553,7.553,0,0,1-10.646,0l-8.237-8.237a7.552,7.552,0,0,1,0-10.646L367.8,356.644a7.55,7.55,0,0,1,10.646,0Zm-49.78-14.658-3.407-3.408v-3.407l5.111,5.111L333.651,337l2.409,2.409-4.985,4.986-2.41-2.409Zm7.228,15.039H358.42v-3.407H339.3l-3.407,3.407Zm0-12.63H358.42v-3.407H339.3l-3.407,3.407Zm-7.228,22.852-3.407-3.408v-3.407l5.111,5.111,3.282-3.282,2.409,2.409-4.985,4.986-2.41-2.409Zm0-12.63-3.407-3.408V347.8l5.111,5.111,3.282-3.282,2.409,2.409-4.985,4.986-2.41-2.409Zm0-29.667h6.36l3.407-3.407h6.815l3.407,3.407h6.36v3.408H328.665V324.95Z" transform="translate(-315.83 -318.137)"/></svg>