<svg xmlns="http://www.w3.org/2000/svg" width="92.117" height="75.393" viewBox="0 0 92.117 75.393"><defs><style>.a{fill:#707070;fill-rule:evenodd;}</style></defs><path class="a" d="M244.741,446.745h9.24l5.294-5.294H239.447l5.294,5.294Zm5.206,48.336h-1.172l-3.984,3.985h-8.1l-5.978-11.952h-2.661l-2.337-9.622-7.3,7.3a7.968,7.968,0,0,1-11.269-11.269l.14-.141a5.994,5.994,0,0,1,1.166-6.8l5.795-5.8L203.3,447.864v-9.5l11.672-11.69h9.694l2.106,2.1,10.211-5.1h24.754l10.211,5.1,2.106-2.1h9.694l11.672,11.69v9.5l-10.952,12.922,5.8,5.8a5.991,5.991,0,0,1,1.164,6.8l.141.141A7.968,7.968,0,0,1,280.3,484.79l-7.3-7.3-2.339,9.622H268l-5.976,11.952h-8.1l-3.984-3.985Zm-14.775-7.967h28.376l-3.984,7.967h-3.984L251.6,491.1h-4.472l-3.984,3.983h-3.984l-3.984-7.967Zm24.149-59.457v5.826h-3.984v-5.826h-3.984v5.826H247.37v-5.826h-3.984v5.826H239.4v-5.826h-1.477l-8.181,4.091,5.72,5.72h27.8l5.72-5.72-8.183-4.091Zm-9.96,22.918h-6.424l-3.095-3.093a7.881,7.881,0,0,1-5.642,5.625l5.134,5.134,1.409-1.408a12.184,12.184,0,0,1,17.233,0l1.409,1.408,5.134-5.134a7.887,7.887,0,0,1-5.642-5.625l-3.093,3.093Zm-7.035,10.657,1.642,1.642a5.98,5.98,0,0,1,10.786,0l1.642-1.642a8.2,8.2,0,0,0-14.071,0Zm7.035,2.225a1.992,1.992,0,0,0-1.442,3.367,1.99,1.99,0,0,0,2.884,0,1.992,1.992,0,0,0-1.442-3.367Zm0,7.968a5.959,5.959,0,0,1-4.224-1.747l-3.974-3.975a8.2,8.2,0,0,0,16.4,0l-3.973,3.975a5.961,5.961,0,0,1-4.224,1.747Zm0,6.212a12.19,12.19,0,0,1-12.172-11.615l-8.173,8.172,2.172,8.935h36.344l2.172-8.935-8.171-8.172a12.19,12.19,0,0,1-12.172,11.615Zm30.806-36.87,2.818-2.817,8.45,8.452v-6.392l-9.34-9.356H275.7l-7.084,7.087a7.876,7.876,0,0,1,3.585,2.048,7.994,7.994,0,0,1,0,11.267l-10,10,9.1,9.1,17.548-20.7-8.684-8.685Zm-10.781,7.474a3.984,3.984,0,1,1,0-5.635,3.995,3.995,0,0,1,0,5.635Zm4.743,24.742,2.585-3.05,5.1,5.1a6,6,0,0,0,6.8,1.166l.141.14a3.985,3.985,0,1,1-5.635,5.635l-8.989-8.989Zm5.17-6.1,2.584-3.05,5.564,5.564a1.992,1.992,0,0,1-2.817,2.817l-5.331-5.331Zm-60.745-26.117-2.817-2.817-8.45,8.452v-6.392l9.338-9.356h6.392l7.086,7.087a7.862,7.862,0,0,0-3.585,2.048,7.994,7.994,0,0,0,0,11.267l10,10-9.1,9.1-17.548-20.7,8.683-8.685Zm10.782,7.474a3.984,3.984,0,1,0,0-5.635,3.995,3.995,0,0,0,0,5.635Zm-4.744,24.742-2.585-3.05-5.1,5.1a6,6,0,0,1-6.8,1.166l-.14.14a3.984,3.984,0,0,0,5.634,5.635l8.989-8.989Zm-5.169-6.1-2.585-3.05-5.563,5.564a1.992,1.992,0,0,0,2.817,2.817l5.331-5.331Z" transform="translate(-203.303 -423.673)"/></svg>