<svg xmlns="http://www.w3.org/2000/svg" width="90.179" height="73.465" viewBox="0 0 90.179 73.465"><defs><style>.a{fill:#707070;fill-rule:evenodd;}</style></defs><path class="a" d="M112.785,423.794h22.856a11.462,11.462,0,0,1,11.427,11.4v24.2a10,10,0,0,1,6.132-2.1,10.12,10.12,0,0,1,10.058,10.058v17.729a8.249,8.249,0,1,0,16.5,0V461.821h-1.6c-7.853,0-8.807-4.588-8.807-12.441l-10.513-3.5v-7.853h24.851v47.06a12.176,12.176,0,0,1-24.351,0V467.355a6.132,6.132,0,1,0-12.264,0v25.979h7.853v3.926H93.5v-3.926h7.853V435.221a11.46,11.46,0,0,1,11.427-11.427Zm17.675,42.679a8.835,8.835,0,1,1-12.494,0l6.246-6.246,6.248,6.246Zm-6.248-.693-3.47,3.47a4.908,4.908,0,1,0,6.941,0l-3.47-3.47Zm55.545-7.884V441.95h-17v1.1l10.512,3.5v2.831c0,1.709-.024,6.231,1.208,7.591.762.84,2.652.924,3.673.924Zm-70.547-5.79h30.006v-14.92a3.606,3.606,0,0,0-3.575-3.576H112.785a3.606,3.606,0,0,0-3.575,3.576v14.92Zm3.926-3.926H135.29V437.536H113.136V448.18Zm-7.853,45.153h37.86V435.221a7.532,7.532,0,0,0-7.5-7.5H112.785a7.532,7.532,0,0,0-7.5,7.5v58.112Z" transform="translate(-93.505 -423.794)"/></svg>