<?xml version="1.0" encoding="utf-8"?>
<!-- Generator: Adobe Illustrator 19.0.0, SVG Export Plug-In . SVG Version: 6.00 Build 0)  -->
<svg version="1.1" id="Layer_1" xmlns="http://www.w3.org/2000/svg" xmlns:xlink="http://www.w3.org/1999/xlink" x="0px" y="0px"
	 viewBox="0 0 312 66" style="enable-background:new 0 0 312 66;" xml:space="preserve">
<style type="text/css">
	.st0{fill:#4B3531;}
</style>
<g id="XMLID_87_">
	<g id="XMLID_137_">
		<path id="XMLID_170_" class="st0" d="M9.2,31.6V6.8H0.3V1.1h24.2v5.7h-8.9v24.7H9.2z"/>
		<path id="XMLID_168_" class="st0" d="M25.7,31.6V9.5h5.8v3c0.8-1,1.8-1.8,3.1-2.5C35.9,9.3,37.2,9,38.6,9v5.7
			c-0.4-0.1-1-0.1-1.6-0.1c-0.5,0-1,0.1-1.5,0.2c-0.5,0.1-1.1,0.3-1.6,0.5c-0.5,0.2-1,0.5-1.4,0.8c-0.4,0.3-0.7,0.6-1,1v14.6H25.7z"
			/>
		<path id="XMLID_165_" class="st0" d="M45.3,7.1c-0.9,0-1.8-0.3-2.4-1c-0.7-0.7-1-1.5-1-2.5s0.3-1.8,1-2.4c0.7-0.7,1.5-1,2.4-1
			c1,0,1.8,0.3,2.5,1c0.7,0.7,1,1.5,1,2.4s-0.3,1.8-1,2.5C47.1,6.8,46.2,7.1,45.3,7.1z M42.4,31.6V9.5h5.8v22.1H42.4z"/>
		<path id="XMLID_163_" class="st0" d="M54.2,31.6V1.1H60v30.5H54.2z"/>
		<path id="XMLID_161_" class="st0" d="M66,31.6V1.1h5.8v30.5H66z"/>
		<path id="XMLID_158_" class="st0" d="M80.6,7.1c-0.9,0-1.8-0.3-2.4-1c-0.7-0.7-1-1.5-1-2.5s0.3-1.8,1-2.4c0.7-0.7,1.5-1,2.4-1
			c1,0,1.8,0.3,2.5,1c0.7,0.7,1,1.5,1,2.4s-0.3,1.8-1,2.5C82.4,6.8,81.6,7.1,80.6,7.1z M77.7,31.6V9.5h5.8v22.1H77.7z"/>
		<path id="XMLID_156_" class="st0" d="M104.4,31.6v-2.8c-0.8,0.9-1.8,1.6-3.1,2.3c-1.3,0.7-2.9,1-4.7,1c-2.4,0-4.2-0.6-5.4-1.8
			c-1.2-1.2-1.7-2.9-1.7-5.1V9.5h5.8v13.4c0,1.5,0.4,2.6,1.1,3.2c0.7,0.6,1.7,0.9,3,0.9c1.1,0,2.1-0.3,3-0.8
			c0.9-0.5,1.5-1.1,2.1-1.7V9.5h5.8v22.1H104.4z"/>
		<path id="XMLID_154_" class="st0" d="M143.5,31.6V17.6c0-1-0.3-1.9-0.8-2.5c-0.5-0.7-1.3-1-2.5-1c-1,0-1.9,0.3-2.7,0.8
			c-0.8,0.5-1.4,1.1-1.8,1.7v14.9h-5.8V17.6c0-1-0.3-1.9-0.8-2.5c-0.5-0.7-1.3-1-2.5-1c-1,0-1.9,0.3-2.7,0.8
			c-0.8,0.6-1.4,1.1-1.8,1.8v14.8h-5.8V9.5h5.8v2.9c0.2-0.3,0.6-0.7,1-1.1c0.5-0.4,1-0.8,1.7-1.1c0.6-0.3,1.3-0.6,2.1-0.9
			c0.8-0.2,1.6-0.3,2.4-0.3c1.6,0,3,0.4,4,1.1c1,0.7,1.7,1.7,2.1,3c0.3-0.5,0.7-1,1.2-1.5c0.5-0.5,1.1-0.9,1.8-1.3
			c0.7-0.4,1.4-0.7,2.1-0.9c0.8-0.2,1.6-0.3,2.4-0.3c2,0,3.6,0.5,4.8,1.6c1.1,1.1,1.7,2.8,1.7,5v15.9H143.5z"/>
		<path id="XMLID_152_" class="st0" d="M167.4,31.6V1.1h6.5v24.7h12.9v5.7H167.4z"/>
		<path id="XMLID_149_" class="st0" d="M194.2,7.1c-0.9,0-1.8-0.3-2.4-1c-0.7-0.7-1-1.5-1-2.5s0.3-1.8,1-2.4c0.7-0.7,1.5-1,2.4-1
			c1,0,1.8,0.3,2.5,1c0.7,0.7,1,1.5,1,2.4s-0.3,1.8-1,2.5C196,6.8,195.2,7.1,194.2,7.1z M191.3,31.6V9.5h5.8v22.1H191.3z"/>
		<path id="XMLID_147_" class="st0" d="M218,31.6V18.2c0-1.6-0.4-2.6-1.1-3.2c-0.7-0.6-1.7-0.9-3-0.9c-1.2,0-2.2,0.3-3,0.8
			c-0.9,0.5-1.5,1.1-2,1.8v14.8h-5.8V9.5h5.8v2.9c0.7-0.9,1.7-1.6,3-2.4c1.3-0.7,2.9-1.1,4.7-1.1c2.4,0,4.2,0.6,5.4,1.9
			c1.2,1.3,1.8,3,1.8,5.1v15.6H218z"/>
		<path id="XMLID_145_" class="st0" d="M240.1,32.1c-1.7,0-3.3-0.3-4.7-0.8s-2.7-1.4-3.7-2.4c-1-1-1.8-2.3-2.4-3.7
			c-0.6-1.4-0.9-3-0.9-4.7c0-1.7,0.3-3.2,0.9-4.6c0.6-1.4,1.4-2.6,2.4-3.7c1-1,2.3-1.8,3.7-2.4c1.4-0.6,3-0.8,4.7-0.8
			c2.3,0,4.1,0.4,5.5,1.2c1.4,0.8,2.5,1.7,3.2,2.7l-3.8,3.6c-1.1-1.6-2.6-2.4-4.7-2.4c-1.8,0-3.2,0.6-4.3,1.8s-1.7,2.7-1.7,4.6
			c0,1.9,0.6,3.5,1.7,4.7s2.5,1.8,4.3,1.8c1,0,1.9-0.2,2.7-0.6c0.8-0.4,1.4-1,2-1.7l3.8,3.5c-0.7,1-1.8,2-3.2,2.8
			C244.1,31.7,242.3,32.1,240.1,32.1z"/>
		<path id="XMLID_142_" class="st0" d="M263,32.1c-1.8,0-3.5-0.3-4.9-0.9s-2.6-1.5-3.7-2.5c-1-1.1-1.8-2.3-2.3-3.7
			c-0.5-1.4-0.8-2.9-0.8-4.5c0-1.6,0.3-3,0.8-4.4c0.5-1.4,1.3-2.6,2.3-3.7c1-1.1,2.2-1.9,3.7-2.5c1.4-0.6,3.1-0.9,4.9-0.9
			c1.8,0,3.5,0.3,4.9,0.9c1.4,0.6,2.7,1.5,3.7,2.5c1,1,1.8,2.3,2.3,3.7c0.5,1.4,0.8,2.9,0.8,4.4c0,1.6-0.3,3.1-0.8,4.5
			c-0.5,1.4-1.3,2.6-2.3,3.7c-1,1.1-2.2,1.9-3.7,2.5C266.5,31.8,264.9,32.1,263,32.1z M263,27c0.9,0,1.7-0.2,2.4-0.5
			c0.7-0.3,1.3-0.8,1.8-1.4c0.5-0.6,0.8-1.3,1.1-2c0.3-0.8,0.4-1.6,0.4-2.5c0-0.9-0.1-1.7-0.4-2.4c-0.3-0.8-0.6-1.5-1.1-2
			c-0.5-0.6-1.1-1-1.8-1.4c-0.7-0.3-1.5-0.5-2.4-0.5c-0.9,0-1.7,0.2-2.4,0.5c-0.7,0.4-1.3,0.8-1.8,1.4c-0.5,0.6-0.9,1.3-1.1,2
			c-0.2,0.8-0.4,1.6-0.4,2.4c0,0.9,0.1,1.7,0.4,2.5c0.2,0.8,0.6,1.5,1.1,2c0.5,0.6,1.1,1,1.8,1.4C261.3,26.8,262.1,27,263,27z"/>
		<path id="XMLID_140_" class="st0" d="M279.2,31.6V1.1h5.8v30.5H279.2z"/>
		<path id="XMLID_138_" class="st0" d="M305.9,31.6V18.2c0-1.6-0.4-2.6-1.1-3.2c-0.7-0.6-1.7-0.9-3-0.9c-1.2,0-2.2,0.3-3,0.8
			c-0.9,0.5-1.5,1.1-2,1.8v14.8H291V9.5h5.8v2.9c0.7-0.9,1.7-1.6,3-2.4c1.3-0.7,2.9-1.1,4.7-1.1c2.4,0,4.2,0.6,5.4,1.9
			c1.2,1.3,1.8,3,1.8,5.1v15.6H305.9z"/>
	</g>
	<g id="XMLID_88_">
		<path id="XMLID_135_" class="st0" d="M35.4,60.3V41.9h11.7v1.4H37v6.8h9.9v1.4H37v7.3h10.1v1.4H35.4z"/>
		<path id="XMLID_133_" class="st0" d="M59.8,60.3l-4.4-5.9l-4.5,5.9h-1.7l5.3-6.9l-5-6.5h1.7l4.1,5.5l4.1-5.5h1.7l-5,6.5l5.3,6.9
			H59.8z"/>
		<path id="XMLID_131_" class="st0" d="M69,60.7c-1,0-1.9-0.2-2.7-0.6s-1.5-0.9-2.1-1.5c-0.6-0.6-1-1.4-1.3-2.2
			c-0.3-0.8-0.5-1.8-0.5-2.7s0.2-1.9,0.5-2.7c0.3-0.8,0.8-1.6,1.3-2.2c0.6-0.6,1.3-1.1,2.1-1.5c0.8-0.4,1.7-0.5,2.7-0.5
			c1.2,0,2.1,0.2,2.8,0.6c0.7,0.4,1.4,1,1.9,1.6l-1,0.9c-0.5-0.7-1-1.1-1.6-1.4c-0.6-0.3-1.3-0.4-2-0.4c-0.8,0-1.5,0.1-2.1,0.4
			c-0.6,0.3-1.2,0.7-1.6,1.2c-0.4,0.5-0.8,1.1-1,1.8c-0.2,0.7-0.3,1.4-0.3,2.2c0,0.8,0.1,1.6,0.3,2.3c0.2,0.7,0.6,1.3,1,1.8
			c0.4,0.5,1,0.9,1.6,1.2c0.6,0.3,1.3,0.4,2.1,0.4c0.7,0,1.4-0.1,2-0.4c0.6-0.3,1.2-0.8,1.6-1.4l1,0.9c-0.5,0.7-1.2,1.3-1.9,1.7
			C71.1,60.5,70.1,60.7,69,60.7z"/>
		<path id="XMLID_128_" class="st0" d="M82.8,60.7c-1,0-1.9-0.2-2.7-0.5c-0.8-0.3-1.5-0.8-2.1-1.5c-0.6-0.6-1.1-1.4-1.4-2.2
			s-0.5-1.8-0.5-2.8c0-1,0.2-1.9,0.5-2.7c0.3-0.9,0.8-1.6,1.3-2.2c0.6-0.6,1.3-1.1,2-1.5c0.8-0.4,1.6-0.6,2.6-0.6
			c1,0,1.9,0.2,2.7,0.6c0.8,0.4,1.4,0.9,2,1.5c0.5,0.6,0.9,1.4,1.2,2.3c0.3,0.9,0.4,1.8,0.4,2.7v0.4H77.7c0,0.7,0.2,1.4,0.4,2
			s0.6,1.2,1.1,1.7c0.5,0.5,1,0.9,1.6,1.1c0.6,0.3,1.3,0.4,2.1,0.4c0.8,0,1.6-0.2,2.4-0.5c0.7-0.3,1.4-0.8,2-1.4l0.7,0.9
			c-0.7,0.7-1.4,1.2-2.3,1.6S83.9,60.7,82.8,60.7z M87.4,53c0-0.6-0.1-1.2-0.3-1.8c-0.2-0.6-0.5-1.1-0.9-1.6
			c-0.4-0.5-0.9-0.9-1.5-1.2c-0.6-0.3-1.3-0.5-2.2-0.5c-0.8,0-1.5,0.2-2.1,0.5c-0.6,0.3-1.1,0.7-1.5,1.2c-0.4,0.5-0.7,1-0.9,1.6
			c-0.2,0.6-0.3,1.2-0.3,1.8H87.4z"/>
		<path id="XMLID_125_" class="st0" d="M98.7,60.7c-0.9,0-1.8-0.2-2.6-0.7c-0.8-0.4-1.5-1.1-2-1.8v7.2h-1.4V47H94l0,2.1
			c0.5-0.7,1.1-1.3,1.9-1.7c0.8-0.5,1.7-0.7,2.7-0.7c0.9,0,1.7,0.2,2.4,0.5c0.7,0.3,1.4,0.8,1.9,1.4c0.5,0.6,0.9,1.3,1.2,2.2
			c0.3,0.9,0.4,1.8,0.4,2.9s-0.1,2-0.4,2.9c-0.3,0.9-0.7,1.6-1.2,2.2s-1.2,1.1-1.9,1.4C100.4,60.5,99.6,60.7,98.7,60.7z M98.4,59.4
			c0.7,0,1.4-0.1,2-0.4c0.6-0.3,1.1-0.7,1.5-1.2s0.7-1.1,0.9-1.8c0.2-0.7,0.3-1.5,0.3-2.3s-0.1-1.6-0.3-2.3
			c-0.2-0.7-0.5-1.3-0.9-1.8c-0.4-0.5-0.9-0.9-1.5-1.2c-0.6-0.3-1.2-0.4-2-0.4c-0.9,0-1.8,0.2-2.6,0.7c-0.8,0.5-1.4,1-1.8,1.7v6.6
			c0.2,0.3,0.4,0.6,0.7,0.9c0.3,0.3,0.7,0.6,1.1,0.8c0.4,0.2,0.8,0.4,1.2,0.5C97.5,59.3,98,59.4,98.4,59.4z"/>
		<path id="XMLID_123_" class="st0" d="M111.2,60.7c-0.9,0-1.5-0.3-2-0.8c-0.4-0.5-0.7-1.2-0.7-2.1v-9.5h-2.2V47h2.2v-3.7h1.5V47
			h2.7v1.3h-2.7v9.3c0,0.5,0.1,1,0.3,1.3c0.2,0.3,0.6,0.5,1.1,0.5c0.3,0,0.6-0.1,0.9-0.2c0.3-0.1,0.5-0.3,0.6-0.4l0.6,1.1
			c-0.3,0.3-0.6,0.5-0.9,0.6C112.2,60.6,111.8,60.7,111.2,60.7z"/>
		<path id="XMLID_120_" class="st0" d="M116.7,44.9c-0.3,0-0.6-0.1-0.8-0.3c-0.2-0.2-0.3-0.5-0.3-0.8c0-0.3,0.1-0.6,0.3-0.8
			c0.2-0.2,0.5-0.3,0.8-0.3c0.3,0,0.6,0.1,0.8,0.3c0.2,0.2,0.3,0.5,0.3,0.8c0,0.3-0.1,0.6-0.3,0.8S117,44.9,116.7,44.9z M116,60.3
			V47h1.4v13.4H116z"/>
		<path id="XMLID_117_" class="st0" d="M127.6,60.7c-1,0-1.9-0.2-2.7-0.6c-0.8-0.4-1.5-0.9-2-1.5s-1-1.4-1.3-2.2
			c-0.3-0.8-0.5-1.8-0.5-2.7s0.2-1.9,0.5-2.7c0.3-0.8,0.7-1.6,1.3-2.2s1.2-1.1,2-1.5c0.8-0.4,1.7-0.5,2.7-0.5c1,0,1.9,0.2,2.7,0.5
			c0.8,0.4,1.5,0.9,2,1.5c0.6,0.6,1,1.4,1.3,2.2c0.3,0.8,0.5,1.8,0.5,2.7s-0.2,1.9-0.5,2.7c-0.3,0.8-0.7,1.6-1.3,2.2
			c-0.6,0.6-1.2,1.1-2,1.5S128.6,60.7,127.6,60.7z M127.6,59.4c0.8,0,1.5-0.2,2.1-0.5c0.6-0.3,1.1-0.7,1.5-1.3
			c0.4-0.5,0.7-1.1,0.9-1.8c0.2-0.7,0.3-1.4,0.3-2.2c0-0.7-0.1-1.5-0.3-2.1c-0.2-0.7-0.5-1.3-0.9-1.8c-0.4-0.5-0.9-0.9-1.5-1.3
			s-1.3-0.5-2.1-0.5c-0.8,0-1.5,0.2-2.1,0.5c-0.6,0.3-1.1,0.7-1.5,1.3c-0.4,0.5-0.7,1.1-0.9,1.8s-0.3,1.4-0.3,2.1
			c0,0.8,0.1,1.5,0.3,2.2c0.2,0.7,0.5,1.3,0.9,1.8c0.4,0.5,0.9,1,1.5,1.3C126.1,59.2,126.8,59.4,127.6,59.4z"/>
		<path id="XMLID_115_" class="st0" d="M146.7,60.3v-9c0-0.6-0.1-1.2-0.2-1.6c-0.2-0.4-0.4-0.8-0.7-1c-0.3-0.3-0.6-0.4-1-0.6
			c-0.4-0.1-0.8-0.2-1.3-0.2c-0.4,0-0.8,0.1-1.3,0.2c-0.4,0.1-0.8,0.3-1.2,0.5c-0.4,0.2-0.7,0.4-1.1,0.7c-0.3,0.3-0.6,0.6-0.8,0.9
			v10.1h-1.4V47h1.4v2c0.2-0.3,0.5-0.6,0.9-0.9c0.4-0.3,0.7-0.5,1.2-0.7c0.4-0.2,0.9-0.4,1.3-0.5s0.9-0.2,1.4-0.2
			c1.4,0,2.4,0.3,3.1,1c0.7,0.7,1.1,1.8,1.1,3.3v9.3H146.7z"/>
		<path id="XMLID_112_" class="st0" d="M161.2,60.3v-1.6c-1.2,1.3-2.7,1.9-4.5,1.9c-0.6,0-1.1-0.1-1.7-0.3c-0.6-0.2-1.1-0.5-1.5-0.9
			c-0.4-0.4-0.8-0.8-1.1-1.4c-0.3-0.6-0.4-1.2-0.4-1.9s0.1-1.4,0.4-1.9c0.3-0.6,0.6-1,1.1-1.4c0.4-0.4,0.9-0.7,1.5-0.8
			c0.6-0.2,1.1-0.3,1.7-0.3c1.9,0,3.4,0.6,4.5,1.9V51c0-1-0.3-1.7-1.1-2.3s-1.5-0.8-2.5-0.8c-0.8,0-1.6,0.2-2.3,0.5
			c-0.7,0.3-1.3,0.8-1.9,1.5l-0.8-1c0.7-0.8,1.5-1.3,2.3-1.7s1.8-0.6,2.9-0.6c0.7,0,1.3,0.1,1.9,0.2c0.6,0.2,1.1,0.4,1.5,0.8
			c0.4,0.4,0.8,0.8,1,1.3s0.4,1.2,0.4,1.9v9.4H161.2z M157.1,59.5c0.8,0,1.6-0.2,2.3-0.5c0.7-0.3,1.3-0.8,1.8-1.4v-2.9
			c-0.5-0.6-1.1-1.1-1.8-1.4c-0.7-0.3-1.5-0.5-2.3-0.5c-1.1,0-2,0.3-2.7,0.9s-1,1.4-1,2.4c0,0.9,0.3,1.7,1,2.4
			C155.1,59.2,156,59.5,157.1,59.5z"/>
		<path id="XMLID_110_" class="st0" d="M167.1,60.3V41.9h1.4v18.5H167.1z"/>
		<path id="XMLID_108_" class="st0" d="M173.1,60.3V41.9h1.4v18.5H173.1z"/>
		<path id="XMLID_106_" class="st0" d="M178.4,64.2c0.1,0.1,0.3,0.1,0.6,0.2c0.2,0,0.4,0.1,0.6,0.1c0.4,0,0.8-0.1,1.1-0.3
			c0.3-0.2,0.6-0.7,0.9-1.3l1.1-2.4L177,47h1.6l4.9,11.7l4.8-11.7h1.6L183,63.3c-0.7,1.7-1.8,2.5-3.4,2.5c-0.2,0-0.5,0-0.7-0.1
			c-0.3,0-0.5-0.1-0.7-0.1L178.4,64.2z"/>
		<path id="XMLID_103_" class="st0" d="M199.6,60.3V41.9h5.9c1.4,0,2.7,0.2,3.9,0.7c1.1,0.5,2.1,1.2,2.9,2c0.8,0.8,1.4,1.8,1.9,2.9
			c0.4,1.1,0.7,2.3,0.7,3.6s-0.2,2.5-0.7,3.6c-0.4,1.1-1.1,2.1-1.9,2.9c-0.8,0.8-1.8,1.5-2.9,2c-1.1,0.5-2.4,0.7-3.9,0.7H199.6z
			 M205.5,58.9c1.2,0,2.3-0.2,3.3-0.6c0.9-0.4,1.8-1,2.4-1.7c0.7-0.7,1.2-1.5,1.5-2.5c0.3-0.9,0.5-2,0.5-3c0-1.1-0.2-2.1-0.5-3
			c-0.3-0.9-0.8-1.8-1.5-2.5s-1.4-1.3-2.4-1.7c-1-0.4-2-0.6-3.3-0.6h-4.3v15.6H205.5z"/>
		<path id="XMLID_101_" class="st0" d="M218.7,60.3V47h1.4v2.3c0.6-0.8,1.2-1.4,2-1.9c0.7-0.5,1.6-0.7,2.5-0.7v1.6
			c-0.1,0-0.2-0.1-0.3-0.1s-0.2,0-0.4,0c-0.3,0-0.7,0.1-1.1,0.2c-0.4,0.1-0.8,0.3-1.1,0.5c-0.4,0.2-0.7,0.5-1,0.8
			c-0.3,0.3-0.5,0.6-0.7,0.9v9.7H218.7z"/>
		<path id="XMLID_98_" class="st0" d="M228.2,44.9c-0.3,0-0.6-0.1-0.8-0.3c-0.2-0.2-0.3-0.5-0.3-0.8c0-0.3,0.1-0.6,0.3-0.8
			c0.2-0.2,0.5-0.3,0.8-0.3c0.3,0,0.6,0.1,0.8,0.3c0.2,0.2,0.3,0.5,0.3,0.8c0,0.3-0.1,0.6-0.3,0.8S228.5,44.9,228.2,44.9z
			 M227.5,60.3V47h1.4v13.4H227.5z"/>
		<path id="XMLID_96_" class="st0" d="M237.1,60.3L231.4,47h1.6l4.9,11.7l4.8-11.7h1.6l-5.6,13.4H237.1z"/>
		<path id="XMLID_93_" class="st0" d="M252.7,60.7c-1,0-1.9-0.2-2.7-0.5c-0.8-0.3-1.5-0.8-2.1-1.5s-1.1-1.4-1.4-2.2
			s-0.5-1.8-0.5-2.8c0-1,0.2-1.9,0.5-2.7c0.3-0.9,0.8-1.6,1.3-2.2c0.6-0.6,1.3-1.1,2-1.5c0.8-0.4,1.7-0.6,2.6-0.6
			c1,0,1.9,0.2,2.7,0.6c0.8,0.4,1.4,0.9,2,1.5c0.5,0.6,0.9,1.4,1.2,2.3c0.3,0.9,0.4,1.8,0.4,2.7v0.4h-11.2c0,0.7,0.2,1.4,0.4,2
			s0.6,1.2,1.1,1.7c0.5,0.5,1,0.9,1.6,1.1c0.6,0.3,1.3,0.4,2.1,0.4c0.8,0,1.6-0.2,2.4-0.5c0.7-0.3,1.4-0.8,2-1.4l0.7,0.9
			c-0.7,0.7-1.4,1.2-2.3,1.6S253.8,60.7,252.7,60.7z M257.3,53c0-0.6-0.1-1.2-0.3-1.8c-0.2-0.6-0.5-1.1-0.9-1.6
			c-0.4-0.5-0.9-0.9-1.5-1.2c-0.6-0.3-1.3-0.5-2.2-0.5c-0.8,0-1.5,0.2-2.1,0.5c-0.6,0.3-1.1,0.7-1.5,1.2c-0.4,0.5-0.7,1-0.9,1.6
			c-0.2,0.6-0.3,1.2-0.3,1.8H257.3z"/>
		<path id="XMLID_91_" class="st0" d="M271.5,60.3v-9c0-0.6-0.1-1.2-0.2-1.6c-0.2-0.4-0.4-0.8-0.7-1c-0.3-0.3-0.6-0.4-1-0.6
			c-0.4-0.1-0.8-0.2-1.3-0.2c-0.4,0-0.8,0.1-1.3,0.2c-0.4,0.1-0.8,0.3-1.2,0.5c-0.4,0.2-0.7,0.4-1.1,0.7c-0.3,0.3-0.6,0.6-0.8,0.9
			v10.1h-1.4V47h1.4v2c0.2-0.3,0.5-0.6,0.9-0.9c0.3-0.3,0.7-0.5,1.2-0.7c0.4-0.2,0.9-0.4,1.3-0.5c0.5-0.1,0.9-0.2,1.4-0.2
			c1.4,0,2.4,0.3,3.1,1c0.7,0.7,1.1,1.8,1.1,3.3v9.3H271.5z"/>
		<path id="XMLID_89_" class="st0" d="M278.2,60.6c-0.3,0-0.6-0.1-0.9-0.4c-0.2-0.2-0.4-0.5-0.4-0.9c0-0.3,0.1-0.6,0.4-0.8
			c0.2-0.2,0.5-0.4,0.9-0.4c0.3,0,0.6,0.1,0.9,0.4s0.4,0.5,0.4,0.8c0,0.3-0.1,0.6-0.4,0.9S278.6,60.6,278.2,60.6z"/>
	</g>
</g>
</svg>
