<?xml version="1.0" encoding="utf-8"?>
<!-- Generator: Adobe Illustrator 16.0.2, SVG Export Plug-In . SVG Version: 6.00 Build 0)  -->
<!DOCTYPE svg PUBLIC "-//W3C//DTD SVG 1.1//EN" "http://www.w3.org/Graphics/SVG/1.1/DTD/svg11.dtd">
<svg version="1.1" id="Layer_1" xmlns="http://www.w3.org/2000/svg" xmlns:xlink="http://www.w3.org/1999/xlink" x="0px" y="0px"
	 width="175px" height="45px" viewBox="0 0 175 45" enable-background="new 0 0 175 45" xml:space="preserve">
<path fill="#1B1919" d="M11.025,40.947c-0.229,1.13-0.514,1.159-1.352,1.271c-0.157,0.021-0.303,0.037-0.451,0.055l-0.001,0.001
	c-0.105,0.017-0.136,0.049-0.169,0.271c-0.066,0.434-0.104,0.643-0.236,1.459c0,0-0.026,0.315-0.358,0.389
	c0.259-7.039,0.368-18.399,0.368-19.051c0-1.386,0.151-1.842,1.949-1.945c0.86-0.051,2.12-0.155,3.019-0.221
	c-0.058,0.209-0.113,0.271-0.205,0.309c-0.187,0.081-0.317,0.12-0.612,0.233c-0.152,0.058-0.243,0.114-0.24,0.262v0.07h-0.003
	C12.59,33.07,11.194,40.111,11.025,40.947 M6.357,44.004c-0.131-0.816-0.168-1.025-0.235-1.459
	c-0.034-0.226-0.065-0.255-0.174-0.271v-0.001c-0.148-0.018-0.294-0.034-0.451-0.055c-0.838-0.111-1.125-0.141-1.351-1.271
	c-0.17-0.836-1.567-7.877-1.71-16.897H2.434c0-0.015,0-0.036,0-0.07c0.002-0.147-0.088-0.204-0.24-0.262
	c-0.295-0.113-0.426-0.152-0.612-0.233c-0.091-0.038-0.146-0.099-0.204-0.302c0.901,0.065,2.173,0.165,3.022,0.214
	c1.797,0.104,1.948,0.56,1.948,1.945c0,0.65,0.11,11.998,0.372,19.052C6.384,44.322,6.357,44.004,6.357,44.004 M4.146,4.051
	c0.226-1.129,0.513-1.16,1.351-1.269C5.654,2.761,5.8,2.743,5.948,2.727c0.108-0.016,0.14-0.046,0.174-0.271
	c0.066-0.434,0.104-0.644,0.235-1.46c0,0,0.027-0.316,0.361-0.388C6.461,7.729,6.347,19.053,6.347,19.657
	c0,1.386-0.151,1.841-1.948,1.944c-0.906,0.053-2.226,0.16-3.023,0.219c0.059-0.208,0.113-0.268,0.205-0.308
	c0.186-0.079,0.317-0.118,0.612-0.232c0.152-0.059,0.243-0.115,0.24-0.262c0-0.033,0-0.055,0-0.07l0.002-0.001
	C2.58,11.927,3.977,4.887,4.146,4.051 M8.816,0.996c0.132,0.816,0.169,1.026,0.236,1.46C9.086,2.678,9.116,2.71,9.222,2.725
	l0.001,0.001C9.37,2.743,9.516,2.761,9.673,2.783c0.837,0.108,1.123,0.139,1.352,1.269c0.169,0.835,1.565,7.876,1.709,16.896
	l0.003,0.001v0.07c-0.003,0.147,0.088,0.203,0.24,0.262c0.295,0.114,0.426,0.153,0.612,0.232c0.092,0.04,0.147,0.102,0.206,0.312
	c-0.719-0.055-2.121-0.17-3.019-0.223c-1.798-0.104-1.949-0.559-1.949-1.944c0-0.644-0.109-11.939-0.37-19.049
	C8.791,0.68,8.816,0.996,8.816,0.996 M14.17,22.499c-0.016-0.928-0.015-0.896-0.019-1.24l-0.001-0.002
	c-0.096-8.782-1.184-16.044-1.708-19.31c-0.215-1.339-0.313-1.474-1.7-1.684c-0.694-0.105-1.319-0.179-1.916-0.225V0.04l0.001,0.002
	C8.292,0.003,7.587,0,7.587,0S6.877,0.003,6.342,0.042V0.04V0.039c-0.596,0.046-1.22,0.119-1.916,0.225
	C3.04,0.474,2.942,0.608,2.728,1.947C2.204,5.213,1.116,12.475,1.02,21.257c0,0.001-0.001,0.001-0.001,0.002
	C1.015,21.604,1.015,21.571,1,22.499c0.015,0.927,0.015,0.896,0.019,1.24l0.001,0.002c0.096,8.782,1.184,16.043,1.708,19.311
	c0.214,1.339,0.312,1.472,1.698,1.683c0.627,0.096,1.195,0.164,1.739,0.208c0.002,0.002,0.003,0.002,0.005,0.003
	C6.711,44.996,7.587,45,7.587,45s0.877-0.004,1.416-0.055c0.003-0.001,0.006-0.003,0.009-0.003c0.541-0.044,1.107-0.112,1.732-0.208
	c1.387-0.211,1.484-0.344,1.7-1.683c0.523-3.268,1.611-10.528,1.708-19.311l0.001-0.002C14.155,23.396,14.154,23.427,14.17,22.499"
	/>
<rect x="22.783" y="0.575" fill="#1B1919" width="0.787" height="43.852"/>
<polygon fill="#1B1919" points="37.841,10.572 35.055,10.572 35.055,8.715 42.641,8.715 42.641,10.572 39.855,10.572 39.855,17.87 
	37.841,17.87 "/>
<polygon fill="#1B1919" points="44.523,8.715 46.537,8.715 46.537,12.338 50.251,12.338 50.251,8.715 52.265,8.715 52.265,17.87 
	50.251,17.87 50.251,14.195 46.537,14.195 46.537,17.87 44.523,17.87 "/>
<polygon fill="#1B1919" points="56.567,8.715 63.472,8.715 63.472,10.507 58.568,10.507 58.568,12.364 62.883,12.364 62.883,14.156 
	58.568,14.156 58.568,16.078 63.537,16.078 63.537,17.87 56.567,17.87 "/>
<polygon fill="#1B1919" points="70.233,8.715 72.248,8.715 72.248,16.039 76.812,16.039 76.812,17.87 70.233,17.87 "/>
<rect x="79.222" y="8.715" fill="#1B1919" width="2.015" height="9.155"/>
<polygon fill="#1B1919" points="84.554,8.715 86.411,8.715 90.701,14.353 90.701,8.715 92.689,8.715 92.689,17.87 90.975,17.87 
	86.542,12.051 86.542,17.87 84.554,17.87 "/>
<path fill="#1B1919" d="M95.799,13.319v-0.026c0-2.603,1.962-4.734,4.774-4.734c1.727,0,2.759,0.575,3.609,1.412l-1.282,1.478
	c-0.705-0.641-1.425-1.033-2.341-1.033c-1.543,0-2.654,1.281-2.654,2.851v0.026c0,1.569,1.085,2.877,2.654,2.877
	c1.046,0,1.688-0.418,2.407-1.072l1.281,1.295c-0.941,1.007-1.988,1.635-3.754,1.635C97.801,18.027,95.799,15.948,95.799,13.319z"/>
<path fill="#1B1919" d="M113.996,13.319v-0.026c0-1.569-1.15-2.877-2.771-2.877c-1.622,0-2.746,1.281-2.746,2.851v0.026
	c0,1.569,1.15,2.877,2.771,2.877C112.872,16.17,113.996,14.889,113.996,13.319z M106.372,13.319v-0.026
	c0-2.603,2.054-4.734,4.878-4.734c2.825,0,4.852,2.105,4.852,4.708v0.026c0,2.603-2.053,4.734-4.877,4.734
	C108.399,18.027,106.372,15.922,106.372,13.319z"/>
<polygon fill="#1B1919" points="119.182,8.715 121.195,8.715 121.195,16.039 125.76,16.039 125.76,17.87 119.182,17.87 "/>
<polygon fill="#1B1919" points="128.365,8.715 130.222,8.715 134.512,14.353 134.512,8.715 136.5,8.715 136.5,17.87 134.786,17.87 
	130.354,12.051 130.354,17.87 128.365,17.87 "/>
<polygon fill="#1B1919" points="36.102,25.699 38.273,25.699 40.679,29.57 43.085,25.699 45.257,25.699 45.257,34.854 
	43.256,34.854 43.256,28.877 40.679,32.787 40.627,32.787 38.076,28.916 38.076,34.854 36.102,34.854 "/>
<path fill="#1B1919" d="M55.182,30.303v-0.027c0-1.569-1.151-2.877-2.772-2.877c-1.622,0-2.747,1.282-2.747,2.852v0.025
	c0,1.57,1.151,2.878,2.772,2.878C54.057,33.153,55.182,31.871,55.182,30.303z M47.557,30.303v-0.027
	c0-2.602,2.054-4.733,4.878-4.733c2.826,0,4.853,2.104,4.853,4.708v0.025c0,2.604-2.054,4.734-4.878,4.734
	C49.584,35.01,47.557,32.904,47.557,30.303z"/>
<polygon fill="#1B1919" points="63.188,27.556 60.402,27.556 60.402,25.699 67.988,25.699 67.988,27.556 65.202,27.556 
	65.202,34.854 63.188,34.854 "/>
<path fill="#1B1919" d="M77.641,30.303v-0.027c0-1.569-1.151-2.877-2.772-2.877s-2.746,1.282-2.746,2.852v0.025
	c0,1.57,1.151,2.878,2.772,2.878S77.641,31.871,77.641,30.303z M70.017,30.303v-0.027c0-2.602,2.053-4.733,4.878-4.733
	c2.825,0,4.852,2.104,4.852,4.708v0.025c0,2.604-2.054,4.734-4.878,4.734S70.017,32.904,70.017,30.303z"/>
<path fill="#1B1919" d="M86.969,30.145c0.981,0,1.543-0.522,1.543-1.294v-0.026c0-0.863-0.602-1.308-1.583-1.308h-2.001v2.628
	H86.969z M82.915,25.699h4.186c1.163,0,2.065,0.326,2.668,0.928c0.51,0.51,0.784,1.229,0.784,2.093v0.026
	c0,1.478-0.798,2.406-1.962,2.838l2.237,3.27h-2.355l-1.961-2.93h-1.583v2.93h-2.014V25.699z"/>
<path fill="#1B1919" d="M97.489,30.303v-0.027c0-2.602,1.962-4.733,4.773-4.733c1.727,0,2.76,0.575,3.61,1.412l-1.282,1.478
	c-0.706-0.641-1.426-1.033-2.341-1.033c-1.543,0-2.654,1.282-2.654,2.852v0.025c0,1.57,1.085,2.878,2.654,2.878
	c1.047,0,1.688-0.419,2.406-1.072l1.281,1.294c-0.941,1.008-1.987,1.635-3.753,1.635C99.49,35.01,97.489,32.931,97.489,30.303z"/>
<path fill="#1B1919" d="M115.688,30.303v-0.027c0-1.569-1.15-2.877-2.772-2.877s-2.747,1.282-2.747,2.852v0.025
	c0,1.57,1.151,2.878,2.773,2.878C114.563,33.153,115.688,31.871,115.688,30.303z M108.063,30.303v-0.027
	c0-2.602,2.054-4.733,4.879-4.733c2.824,0,4.852,2.104,4.852,4.708v0.025c0,2.604-2.053,4.734-4.878,4.734
	S108.063,32.904,108.063,30.303z"/>
<polygon fill="#1B1919" points="120.983,25.699 123.154,25.699 125.561,29.57 127.967,25.699 130.139,25.699 130.139,34.854 
	128.137,34.854 128.137,28.877 125.561,32.787 125.508,32.787 122.958,28.916 122.958,34.854 120.983,34.854 "/>
<path fill="#1B1919" d="M137.344,30.314c1.007,0,1.596-0.601,1.596-1.386v-0.026c0-0.902-0.627-1.386-1.635-1.386h-1.557v2.798
	H137.344z M133.734,25.699h3.74c2.185,0,3.506,1.294,3.506,3.164v0.026c0,2.118-1.648,3.217-3.702,3.217h-1.53v2.747h-2.014V25.699z
	"/>
<path fill="#1B1919" d="M148.148,31.021l-1.217-2.969l-1.217,2.969H148.148z M146.029,25.633h1.857l3.923,9.221h-2.104l-0.838-2.054
	h-3.871l-0.837,2.054h-2.054L146.029,25.633z"/>
<polygon fill="#1B1919" points="155.268,25.699 157.124,25.699 161.414,31.335 161.414,25.699 163.402,25.699 163.402,34.854 
	161.688,34.854 157.255,29.033 157.255,34.854 155.268,34.854 "/>
<polygon fill="#1B1919" points="168.697,31.244 165.18,25.699 167.533,25.699 169.717,29.373 171.94,25.699 174.229,25.699 
	170.711,31.205 170.711,34.854 168.697,34.854 "/>
</svg>
